<svg width="20" height="20" viewBox="0 0 20 20" fill="none" xmlns="http://www.w3.org/2000/svg">
<path d="M10 4.28572C9.57622 4.28572 9.16192 4.16004 8.80953 3.92458C8.45714 3.68912 8.18248 3.35445 8.02029 2.96289C7.85811 2.57134 7.81567 2.14048 7.89835 1.72481C7.98104 1.30913 8.18512 0.927313 8.48481 0.627629C8.78449 0.327945 9.16631 0.123858 9.58199 0.0411754C9.99766 -0.0415073 10.4285 0.00092847 10.8201 0.163116C11.2116 0.325304 11.5463 0.599959 11.7818 0.95235C12.0172 1.30474 12.1429 1.71904 12.1429 2.14286C12.1429 2.71118 11.9171 3.25622 11.5153 3.65809C11.1134 4.05995 10.5684 4.28572 10 4.28572ZM10 1.42857C9.85876 1.42857 9.72066 1.47046 9.6032 1.54895C9.48574 1.62744 9.39418 1.73899 9.34012 1.86951C9.28606 2.00003 9.27191 2.14365 9.29947 2.28221C9.32704 2.42077 9.39507 2.54804 9.49496 2.64793C9.59485 2.74783 9.72213 2.81586 9.86069 2.84342C9.99924 2.87098 10.1429 2.85683 10.2734 2.80277C10.4039 2.74871 10.5155 2.65716 10.5939 2.53969C10.6724 2.42223 10.7143 2.28413 10.7143 2.14286C10.7143 1.95342 10.6391 1.77174 10.5051 1.63778C10.3712 1.50383 10.1895 1.42857 10 1.42857Z" fill="#616161"/>
<path d="M12.1428 15.7143H7.85711C7.66767 15.7143 7.48599 15.7895 7.35203 15.9235C7.21808 16.0575 7.14282 16.2391 7.14282 16.4286V17.1429C7.14282 17.9006 7.44384 18.6274 7.97966 19.1632C8.51548 19.699 9.2422 20 9.99996 20C10.7577 20 11.4845 19.699 12.0203 19.1632C12.5561 18.6274 12.8571 17.9006 12.8571 17.1429V16.4286C12.8571 16.2391 12.7819 16.0575 12.6479 15.9235C12.5139 15.7895 12.3323 15.7143 12.1428 15.7143Z" fill="#616161"/>
<path d="M18.8928 15.7928C18.151 15.4248 17.5269 14.8563 17.0914 14.1519C16.6559 13.4475 16.4263 12.6353 16.4286 11.8071V9.28569C16.4286 7.58073 15.7513 5.94559 14.5457 4.74C13.3401 3.53441 11.7049 2.85712 9.99999 2.85712C8.29502 2.85712 6.65989 3.53441 5.4543 4.74C4.24871 5.94559 3.57142 7.58073 3.57142 9.28569V11.8071C3.57369 12.6353 3.34407 13.4475 2.90855 14.1519C2.47303 14.8563 1.84901 15.4248 1.10713 15.7928C0.964775 15.8658 0.851016 15.9843 0.784074 16.1296C0.717133 16.2749 0.700884 16.4384 0.737931 16.594C0.774977 16.7496 0.863176 16.8883 0.988397 16.9878C1.11362 17.0873 1.26862 17.1419 1.42856 17.1428H18.5714C18.7314 17.1419 18.8864 17.0873 19.0116 16.9878C19.1368 16.8883 19.225 16.7496 19.262 16.594C19.2991 16.4384 19.2828 16.2749 19.2159 16.1296C19.149 15.9843 19.0352 15.8658 18.8928 15.7928Z" fill="#616161"/>
</svg>
