<svg width="20" height="20" viewBox="0 0 20 20" fill="none" xmlns="http://www.w3.org/2000/svg">
<path fill-rule="evenodd" clip-rule="evenodd" d="M18.5 17.9608V6.77442C18.5 6.12205 18.1818 5.51067 17.6475 5.13637L11.1475 0.582895C10.4586 0.100298 9.54138 0.100298 8.85249 0.582895L2.35249 5.13637C1.81818 5.51067 1.5 6.12205 1.5 6.77442V17.9608C1.50149 18.4426 1.70098 18.9042 2.05489 19.2449C2.40881 19.5856 2.88838 19.7776 3.38889 19.779H16.6111C17.1116 19.7776 17.5912 19.5856 17.9451 19.2449C18.299 18.9042 18.4985 18.4426 18.5 17.9608ZM9 7C8.44772 7 8 7.44772 8 8V14C8 14.5523 8.44772 15 9 15H11C11.5523 15 12 14.5523 12 14V8C12 7.44772 11.5523 7 11 7H9Z" fill="#5290E0"/>
</svg>
