<svg width="40" height="40" viewBox="0 0 40 40" fill="none" xmlns="http://www.w3.org/2000/svg">
<path fill-rule="evenodd" clip-rule="evenodd" d="M23.7905 6.28574C24.1128 5.6748 24.2858 4.98918 24.2858 4.28572C24.2858 3.43809 24.0344 2.60949 23.5635 1.90471C23.0926 1.19993 22.4233 0.650615 21.6401 0.326239C20.857 0.00186393 19.9953 -0.0830075 19.164 0.0823577C18.3326 0.247723 17.569 0.655898 16.9696 1.25527C16.3702 1.85463 15.9621 2.61827 15.7967 3.44962C15.6313 4.28097 15.7162 5.14268 16.0406 5.92579C16.0915 6.04867 16.1479 6.16874 16.2096 6.28569C14.2269 6.89746 12.4028 7.98589 10.9086 9.48007C8.49742 11.8913 7.14283 15.1615 7.14283 18.5714V23.6143C7.14738 25.2706 6.68813 26.8951 5.8171 28.304C4.94606 29.7128 3.69802 30.8496 2.21426 31.5857C1.92955 31.7316 1.70203 31.9688 1.56815 32.2593C1.43427 32.5498 1.40177 32.8769 1.47586 33.1881C1.54996 33.4993 1.72635 33.7766 1.9768 33.9756C2.22724 34.1746 2.53723 34.2838 2.85712 34.2857L14.2856 34.2857C14.2856 35.8013 14.8877 37.2547 15.9593 38.3263C17.031 39.398 18.4844 40 19.9999 40C21.5155 40 22.9689 39.398 24.0405 38.3263C25.1122 37.2547 25.7142 35.8013 25.7142 34.2857L37.1428 34.2857C37.4627 34.2838 37.7727 34.1746 38.0231 33.9756C38.2736 33.7766 38.45 33.4993 38.5241 33.1881C38.5982 32.8769 38.5657 32.5498 38.4318 32.2593C38.2979 31.9688 38.0704 31.7316 37.7857 31.5857C36.3019 30.8496 35.0539 29.7128 34.1828 28.304C33.3118 26.8951 32.8526 25.2706 32.8571 23.6143V18.5714C32.8571 15.1615 31.5025 11.8913 29.0913 9.48007C27.5972 7.98594 25.7732 6.89753 23.7905 6.28574ZM20.0001 2.85715C19.7175 2.85715 19.4413 2.94094 19.2064 3.09791C18.9715 3.25488 18.7884 3.478 18.6802 3.73903C18.5721 4.00007 18.5438 4.28731 18.599 4.56442C18.6541 4.84154 18.7901 5.09609 18.9899 5.29588C19.1897 5.49566 19.4443 5.63172 19.7214 5.68684C19.9985 5.74197 20.2857 5.71368 20.5468 5.60555C20.8078 5.49743 21.0309 5.31432 21.1879 5.07939C21.3449 4.84447 21.4286 4.56827 21.4286 4.28572C21.4286 3.90684 21.2781 3.54348 21.0102 3.27557C20.7423 3.00766 20.379 2.85715 20.0001 2.85715Z" fill="black"/>
</svg>
