<svg width="40" height="40" viewBox="0 0 40 40" fill="none" xmlns="http://www.w3.org/2000/svg">
<path d="M12.8 10H5.6C3.61177 10 2 11.7909 2 14V34C2 36.2092 3.61177 38 5.6 38H34.4C36.3883 38 38 36.2092 38 34V14C38 11.7909 36.3883 10 34.4 10H27.2H12.8Z" fill="black"/>
<path d="M12.8 10H5.6C3.61177 10 2 11.7909 2 14V34C2 36.2092 3.61177 38 5.6 38H34.4C36.3883 38 38 36.2092 38 34V14C38 11.7909 36.3883 10 34.4 10H27.2M12.8 10V3.2C12.8 2.53726 13.2835 2 13.88 2H26.12C26.7165 2 27.2 2.53726 27.2 3.2V10M12.8 10H27.2" stroke="black" stroke-width="2.7"/>
</svg>
