<svg width="40" height="40" viewBox="0 0 40 40" fill="none" xmlns="http://www.w3.org/2000/svg">
<path d="M3.4375 15H36.5625C37.0781 15 37.5 15.4219 37.5 15.9375V36.25C37.5 38.3203 35.8203 40 33.75 40H6.25C4.17969 40 2.5 38.3203 2.5 36.25V15.9375C2.5 15.4219 2.92188 15 3.4375 15ZM37.5 11.5625V8.75C37.5 6.67969 35.8203 5 33.75 5H30V0.9375C30 0.421875 29.5781 0 29.0625 0H25.9375C25.4219 0 25 0.421875 25 0.9375V5H15V0.9375C15 0.421875 14.5781 0 14.0625 0H10.9375C10.4219 0 10 0.421875 10 0.9375V5H6.25C4.17969 5 2.5 6.67969 2.5 8.75V11.5625C2.5 12.0781 2.92188 12.5 3.4375 12.5H36.5625C37.0781 12.5 37.5 12.0781 37.5 11.5625Z" fill="black"/>
</svg>
