<svg width="40" height="40" viewBox="0 0 40 40" fill="none" xmlns="http://www.w3.org/2000/svg">
<path d="M31.25 5H25C25 2.24219 22.7578 0 20 0C17.2422 0 15 2.24219 15 5H8.75C6.67969 5 5 6.67969 5 8.75V36.25C5 38.3203 6.67969 40 8.75 40H31.25C33.3203 40 35 38.3203 35 36.25V8.75C35 6.67969 33.3203 5 31.25 5ZM12.5 33.125C11.4609 33.125 10.625 32.2891 10.625 31.25C10.625 30.2109 11.4609 29.375 12.5 29.375C13.5391 29.375 14.375 30.2109 14.375 31.25C14.375 32.2891 13.5391 33.125 12.5 33.125ZM12.5 25.625C11.4609 25.625 10.625 24.7891 10.625 23.75C10.625 22.7109 11.4609 21.875 12.5 21.875C13.5391 21.875 14.375 22.7109 14.375 23.75C14.375 24.7891 13.5391 25.625 12.5 25.625ZM12.5 18.125C11.4609 18.125 10.625 17.2891 10.625 16.25C10.625 15.2109 11.4609 14.375 12.5 14.375C13.5391 14.375 14.375 15.2109 14.375 16.25C14.375 17.2891 13.5391 18.125 12.5 18.125ZM20 3.125C21.0391 3.125 21.875 3.96094 21.875 5C21.875 6.03906 21.0391 6.875 20 6.875C18.9609 6.875 18.125 6.03906 18.125 5C18.125 3.96094 18.9609 3.125 20 3.125ZM30 31.875C30 32.2188 29.7188 32.5 29.375 32.5H18.125C17.7812 32.5 17.5 32.2188 17.5 31.875V30.625C17.5 30.2812 17.7812 30 18.125 30H29.375C29.7188 30 30 30.2812 30 30.625V31.875ZM30 24.375C30 24.7188 29.7188 25 29.375 25H18.125C17.7812 25 17.5 24.7188 17.5 24.375V23.125C17.5 22.7812 17.7812 22.5 18.125 22.5H29.375C29.7188 22.5 30 22.7812 30 23.125V24.375ZM30 16.875C30 17.2188 29.7188 17.5 29.375 17.5H18.125C17.7812 17.5 17.5 17.2188 17.5 16.875V15.625C17.5 15.2812 17.7812 15 18.125 15H29.375C29.7188 15 30 15.2812 30 15.625V16.875Z" fill="black"/>
</svg>
