<svg width="40" height="40" viewBox="0 0 40 40" fill="none" xmlns="http://www.w3.org/2000/svg">
<path fill-rule="evenodd" clip-rule="evenodd" d="M8.8886 36.6294C12.1776 38.827 16.0444 40 20 40C25.3043 40 30.3914 37.8929 34.1421 34.1421C37.8929 30.3914 40 25.3043 40 20C40 16.0444 38.827 12.1776 36.6294 8.8886C34.4318 5.59962 31.3082 3.03617 27.6537 1.52242C23.9992 0.00866591 19.9778 -0.387401 16.0982 0.384303C12.2186 1.15601 8.65492 3.06082 5.85787 5.85787C3.06082 8.65492 1.15601 12.2186 0.384303 16.0982C-0.387401 19.9778 0.00866591 23.9992 1.52242 27.6537C3.03617 31.3082 5.59962 34.4318 8.8886 36.6294ZM18.2429 21.7704L26.1629 29.6904L28.4349 27.4184L20.9789 19.9784L20.9789 10.4102L17.7789 10.4104V20.6344C17.7777 20.845 17.8181 21.0537 17.8977 21.2487C17.9773 21.4436 18.0946 21.6209 18.2429 21.7704Z" fill="black"/>
</svg>
