<svg width="40" height="40" viewBox="0 0 40 40" fill="none" xmlns="http://www.w3.org/2000/svg">
<path d="M30.0026 32.8558C28.5398 32.857 27.0947 32.5367 25.7694 31.9174C24.4441 31.2982 23.2712 30.3951 22.3335 29.2722C23.6073 32.162 25.1193 34.9406 26.8538 37.5795C27.5139 38.5797 26.7967 40 25.6023 40H14.4016C13.2044 40 12.4872 38.5797 13.1501 37.5795C14.8847 34.9406 16.3967 32.162 17.6704 29.2722C16.5796 30.5761 15.1745 31.5803 13.5877 32.1901C12.001 32.7999 10.2851 32.9951 8.60198 32.7573C6.91887 32.5196 5.32412 31.8567 3.96835 30.8312C2.61257 29.8058 1.54052 28.4516 0.853422 26.8967C0.166326 25.3417 -0.113133 23.6372 0.0414341 21.9442C0.196002 20.2512 0.779495 18.6256 1.73681 17.2208C2.69413 15.816 3.99367 14.6784 5.51272 13.9155C7.03177 13.1526 8.72018 12.7895 10.4185 12.8606C9.97332 11.3677 9.88296 9.79143 10.1546 8.25745C10.4263 6.72346 11.0525 5.27415 11.9833 4.02503C12.9142 2.77591 14.1238 1.76152 15.516 1.06272C16.9082 0.363907 18.4443 0 20.002 0C21.5596 0 23.0958 0.363907 24.4879 1.06272C25.8801 1.76152 27.0898 2.77591 28.0206 4.02503C28.9514 5.27415 29.5776 6.72346 29.8493 8.25745C30.121 9.79143 30.0306 11.3677 29.5854 12.8606C30.9149 12.8055 32.2419 13.0163 33.4889 13.4806C34.7359 13.945 35.8776 14.6535 36.8473 15.5647C37.817 16.476 38.5952 17.5716 39.1361 18.7874C39.6771 20.0032 39.9701 21.3148 39.9978 22.6452C40.0256 23.9757 39.7876 25.2983 39.2978 26.5357C38.808 27.773 38.0762 28.9001 37.1454 29.851C36.2145 30.8019 35.1033 31.5575 33.8768 32.0734C32.6503 32.5894 31.3332 32.8554 30.0026 32.8558Z" fill="black"/>
</svg>
