<svg width="40" height="40" viewBox="0 0 40 40" fill="none" xmlns="http://www.w3.org/2000/svg">
<path fill-rule="evenodd" clip-rule="evenodd" d="M13.3678 4.58517L13.4339 4.62203L24.343 11.8947C24.6129 12.0746 24.6129 12.4712 24.343 12.6511L13.4339 19.9237C13.1319 20.1251 12.7273 19.9086 12.7273 19.5455V14.5456H9.99999C6.96143 14.5456 4.65245 17.0071 4.54906 19.8044L4.54545 20.0001C4.54545 23.0046 6.93769 25.4546 9.99999 25.4546H13.1818C13.4328 25.4546 13.6363 25.6581 13.6363 25.9091V29.5454C13.6363 29.7965 13.4328 30 13.1818 30H9.99999C4.42064 30 0 25.4565 0 20.0001C0 14.6456 4.33687 10.0002 9.99999 10.0002H12.7273V5.00023C12.7273 4.66312 13.0761 4.45233 13.3678 4.58517ZM26.6322 35.4148L26.5661 35.378L15.657 28.1053C15.3871 27.9254 15.3871 27.5288 15.657 27.3489L26.5661 20.0763C26.8682 19.8749 27.2728 20.0914 27.2728 20.4545V25.4544H30C33.0386 25.4544 35.3476 22.9929 35.451 20.1956L35.4546 19.9999C35.4546 16.9954 33.0623 14.5454 30 14.5454H26.8182C26.5672 14.5454 26.3637 14.3419 26.3637 14.0909V10.4546C26.3637 10.2035 26.5672 10 26.8182 10H30C35.5794 10 40 14.5435 40 19.9999C40 25.3544 35.6632 29.9998 30 29.9998H27.2728V34.9998C27.2728 35.3369 26.9239 35.5477 26.6322 35.4148Z" fill="black"/>
</svg>
