<svg width="20" height="20" viewBox="0 0 20 20" fill="none" xmlns="http://www.w3.org/2000/svg">
<path fill-rule="evenodd" clip-rule="evenodd" d="M0.5 4C0.5 2.89524 1.39524 2 2.5 2C3.60476 2 4.5 2.89524 4.5 4C4.5 5.10476 3.60476 6 2.5 6C1.39524 6 0.5 5.10476 0.5 4ZM8.07143 3.2L18.9286 3.21584C19.244 3.21584 19.5 3.57069 19.5 4.00792C19.5 4.44515 19.244 4.8 18.9286 4.8L8.07143 4.78416C7.756 4.78416 7.5 4.42931 7.5 3.99208C7.5 3.55485 7.756 3.2 8.07143 3.2ZM2.5 8C1.39524 8 0.5 8.89524 0.5 10C0.5 11.1048 1.39524 12 2.5 12C3.60476 12 4.5 11.1048 4.5 10C4.5 8.89524 3.60476 8 2.5 8ZM8.07143 9.2L18.9286 9.21584C19.244 9.21584 19.5 9.57069 19.5 10.0079C19.5 10.4451 19.244 10.8 18.9286 10.8L8.07143 10.7842C7.756 10.7842 7.5 10.4293 7.5 9.99208C7.5 9.55485 7.756 9.2 8.07143 9.2ZM2.5 14C1.39524 14 0.5 14.8952 0.5 16C0.5 17.1048 1.39524 18 2.5 18C3.60476 18 4.5 17.1048 4.5 16C4.5 14.8952 3.60476 14 2.5 14ZM8.07143 15.2L18.9286 15.2158C19.244 15.2158 19.5 15.5707 19.5 16.0079C19.5 16.4451 19.244 16.8 18.9286 16.8L8.07143 16.7842C7.756 16.7842 7.5 16.4293 7.5 15.9921C7.5 15.5549 7.756 15.2 8.07143 15.2Z" fill="#CCCCCC"/>
</svg>
