<svg width="40" height="40" viewBox="0 0 40 40" fill="none" xmlns="http://www.w3.org/2000/svg">
<g clip-path="url(#clip0_720_5654)">
<path fill-rule="evenodd" clip-rule="evenodd" d="M12 12V4C12 1.8 13.8 0 16 0H36C37.0609 0 38.0783 0.421427 38.8284 1.17157C39.5786 1.92172 40 2.93913 40 4V24C40 25.0609 39.5786 26.0783 38.8284 26.8284C38.0783 27.5786 37.0609 28 36 28H28V36C28 37.0609 27.5786 38.0783 26.8284 38.8284C26.0783 39.5786 25.0609 40 24 40H4C2.93913 40 1.92172 39.5786 1.17157 38.8284C0.421427 38.0783 0 37.0609 0 36V16C0 13.8 1.8 12 4 12H12ZM16 12H24C25.0609 12 26.0783 12.4214 26.8284 13.1716C27.5786 13.9217 28 14.9391 28 16V24H36V4H16V12ZM12 20V24H8V28H12V32H16V28H20V24H16V20H12Z" fill="black"/>
</g>
<defs>
<clipPath id="clip0_720_5654">
<rect width="40" height="40" fill="white"/>
</clipPath>
</defs>
</svg>
