<svg width="40" height="40" viewBox="0 0 40 40" fill="none" xmlns="http://www.w3.org/2000/svg">
<path d="M14.6154 16.5166L16.75 20.7666H12.4808L14.6154 16.5166ZM40 5.38203V36.1512C40.0015 36.4138 39.935 36.6722 39.807 36.9014C39.6789 37.1306 39.4936 37.3227 39.2692 37.4589C39.0466 37.5989 38.7918 37.6794 38.5292 37.6929C38.2666 37.7063 38.005 37.6523 37.7692 37.5358L32.3077 34.7858L26.8461 37.5358C26.6294 37.6372 26.3931 37.6897 26.1538 37.6897C25.9146 37.6897 25.6783 37.6372 25.4615 37.5358L20 34.7858L14.5385 37.5358C14.3225 37.6398 14.0859 37.6938 13.8462 37.6938C13.6065 37.6938 13.3698 37.6398 13.1539 37.5358L7.69232 34.7858L2.23079 37.5358C1.99503 37.6523 1.73337 37.7063 1.47077 37.6929C1.20817 37.6794 0.953408 37.5989 0.730795 37.4589C0.506378 37.3227 0.3211 37.1306 0.193028 36.9014C0.0649557 36.6722 -0.00153946 36.4138 2.7051e-05 36.1512V5.38203C2.7051e-05 4.56598 0.324201 3.78336 0.901236 3.20632C1.47827 2.62929 2.2609 2.30511 3.07695 2.30511H36.9231C37.7391 2.30511 38.5217 2.62929 39.0988 3.20632C39.6758 3.78336 40 4.56598 40 5.38203ZM22.1538 24.6897L16 12.382C15.869 12.1278 15.6704 11.9145 15.4262 11.7656C15.182 11.6167 14.9014 11.5379 14.6154 11.5379C14.3293 11.5379 14.0488 11.6167 13.8046 11.7656C13.5603 11.9145 13.3618 12.1278 13.2308 12.382L7.07694 24.6897C6.89333 25.0569 6.86312 25.482 6.99295 25.8715C7.12278 26.261 7.40203 26.583 7.76925 26.7666C8.13647 26.9502 8.56159 26.9804 8.95109 26.8506C9.34059 26.7208 9.66256 26.4415 9.84617 26.0743L10.9423 23.8435H18.2885L19.3846 26.0743C19.5154 26.329 19.7138 26.5427 19.958 26.6919C20.2023 26.8412 20.483 26.9203 20.7692 26.9205C21.0079 26.9154 21.2432 26.8631 21.4615 26.7666C21.8234 26.5774 22.0977 26.2552 22.2268 25.8679C22.356 25.4805 22.3298 25.0582 22.1538 24.6897ZM34.6154 19.2282C34.6154 18.8201 34.4533 18.4288 34.1648 18.1403C33.8762 17.8518 33.4849 17.6897 33.0769 17.6897H30.7692V15.382C30.7692 14.974 30.6071 14.5827 30.3186 14.2942C30.0301 14.0056 29.6388 13.8436 29.2308 13.8436C28.8227 13.8436 28.4314 14.0056 28.1429 14.2942C27.8544 14.5827 27.6923 14.974 27.6923 15.382V17.6897H25.3846C24.9766 17.6897 24.5853 17.8518 24.2968 18.1403C24.0082 18.4288 23.8461 18.8201 23.8461 19.2282C23.8461 19.6362 24.0082 20.0275 24.2968 20.316C24.5853 20.6045 24.9766 20.7666 25.3846 20.7666H27.6923V23.0743C27.6923 23.4823 27.8544 23.8737 28.1429 24.1622C28.4314 24.4507 28.8227 24.6128 29.2308 24.6128C29.6388 24.6128 30.0301 24.4507 30.3186 24.1622C30.6071 23.8737 30.7692 23.4823 30.7692 23.0743V20.7666H33.0769C33.4849 20.7666 33.8762 20.6045 34.1648 20.316C34.4533 20.0275 34.6154 19.6362 34.6154 19.2282Z" fill="black"/>
</svg>
