<svg width="40" height="40" viewBox="0 0 40 40" fill="none" xmlns="http://www.w3.org/2000/svg">
<g clip-path="url(#clip0_748_9439)">
<path d="M10 1.4C10 0.626802 9.3732 0 8.6 0H1.4C0.626801 0 0 0.626801 0 1.4V38.6C0 39.3732 0.626801 40 1.4 40H8.6C9.3732 40 10 39.3732 10 38.6V1.4ZM7.5 33.75C7.5 34.4404 6.94036 35 6.25 35H3.75C3.05964 35 2.5 34.4404 2.5 33.75C2.5 33.0596 3.05964 32.5 3.75 32.5H6.25C6.94036 32.5 7.5 33.0596 7.5 33.75ZM7.5 28.75C7.5 29.4404 6.94036 30 6.25 30H3.75C3.05964 30 2.5 29.4404 2.5 28.75C2.5 28.0596 3.05964 27.5 3.75 27.5H6.25C6.94036 27.5 7.5 28.0596 7.5 28.75ZM7.5 23.75C7.5 24.4404 6.94036 25 6.25 25H3.75C3.05964 25 2.5 24.4404 2.5 23.75C2.5 23.0596 3.05964 22.5 3.75 22.5H6.25C6.94036 22.5 7.5 23.0596 7.5 23.75ZM5 7.5C3.62 7.5 2.5 6.38 2.5 5C2.5 3.62 3.62 2.5 5 2.5C6.38 2.5 7.5 3.62 7.5 5C7.5 6.38 6.38 7.5 5 7.5Z" fill="black"/>
<path d="M15 38.6C15 39.3732 15.6268 40 16.4 40H23.6C24.3732 40 25 39.3732 25 38.6V1.4C25 0.626802 24.3732 0 23.6 0H16.4C15.6268 0 15 0.626801 15 1.4V38.6ZM20 2.5C21.38 2.5 22.5 3.62 22.5 5C22.5 6.38 21.38 7.5 20 7.5C18.62 7.5 17.5 6.38 17.5 5C17.5 3.62 18.62 2.5 20 2.5ZM17.5 23.75C17.5 23.0596 18.0596 22.5 18.75 22.5H21.25C21.9404 22.5 22.5 23.0596 22.5 23.75C22.5 24.4404 21.9404 25 21.25 25H18.75C18.0596 25 17.5 24.4404 17.5 23.75ZM17.5 28.75C17.5 28.0596 18.0596 27.5 18.75 27.5H21.25C21.9404 27.5 22.5 28.0596 22.5 28.75C22.5 29.4404 21.9404 30 21.25 30H18.75C18.0596 30 17.5 29.4404 17.5 28.75ZM17.5 33.75C17.5 33.0596 18.0596 32.5 18.75 32.5H21.25C21.9404 32.5 22.5 33.0596 22.5 33.75C22.5 34.4404 21.9404 35 21.25 35H18.75C18.0596 35 17.5 34.4404 17.5 33.75Z" fill="black"/>
<path d="M40 1.4C40 0.626802 39.3732 0 38.6 0H31.4C30.6268 0 30 0.626801 30 1.4V38.6C30 39.3732 30.6268 40 31.4 40H38.6C39.3732 40 40 39.3732 40 38.6V1.4ZM37.5 33.75C37.5 34.4404 36.9404 35 36.25 35H33.75C33.0596 35 32.5 34.4404 32.5 33.75C32.5 33.0596 33.0596 32.5 33.75 32.5H36.25C36.9404 32.5 37.5 33.0596 37.5 33.75ZM37.5 28.75C37.5 29.4404 36.9404 30 36.25 30H33.75C33.0596 30 32.5 29.4404 32.5 28.75C32.5 28.0596 33.0596 27.5 33.75 27.5H36.25C36.9404 27.5 37.5 28.0596 37.5 28.75ZM37.5 23.75C37.5 24.4404 36.9404 25 36.25 25H33.75C33.0596 25 32.5 24.4404 32.5 23.75C32.5 23.0596 33.0596 22.5 33.75 22.5H36.25C36.9404 22.5 37.5 23.0596 37.5 23.75ZM35 7.5C33.62 7.5 32.5 6.38 32.5 5C32.5 3.62 33.62 2.5 35 2.5C36.38 2.5 37.5 3.62 37.5 5C37.5 6.38 36.38 7.5 35 7.5Z" fill="black"/>
</g>
<defs>
<clipPath id="clip0_748_9439">
<rect width="40" height="40" fill="white"/>
</clipPath>
</defs>
</svg>
