<svg width="40" height="40" viewBox="0 0 40 40" fill="none" xmlns="http://www.w3.org/2000/svg">
<g clip-path="url(#clip0_709_5729)">
<path fill-rule="evenodd" clip-rule="evenodd" d="M6.25 0C2.79822 0 0 2.79822 0 6.25V33.75C0 37.2018 2.79822 40 6.25 40H33.75C37.2018 40 40 37.2018 40 33.75V6.25C40 2.79822 37.2018 0 33.75 0H6.25ZM21.2857 18.7143H30.2143C31.2 18.7143 32 19.5143 32 20.5C32 21.4857 31.2 22.2857 30.2143 22.2857H21.2857V31.2143C21.2857 32.2 20.4857 33 19.5 33C18.5143 33 17.7143 32.2 17.7143 31.2143V22.2857H8.78571C7.8 22.2857 7 21.4857 7 20.5C7 19.5143 7.8 18.7143 8.78571 18.7143H17.7143V9.78571C17.7143 8.8 18.5143 8 19.5 8C20.4857 8 21.2857 8.8 21.2857 9.78571V18.7143Z" fill="black"/>
</g>
<defs>
<clipPath id="clip0_709_5729">
<rect width="40" height="40" fill="white"/>
</clipPath>
</defs>
</svg>
