<svg width="40" height="40" viewBox="0 0 40 40" fill="none" xmlns="http://www.w3.org/2000/svg">
<g clip-path="url(#clip0_709_5846)">
<path d="M5 38.75C5 39.4375 4.43359 40 3.75 40H1.25C0.566406 40 0 39.4375 0 38.75V2.5C0 1.11328 1.11328 0 2.5 0C3.88672 0 5 1.11328 5 2.5V38.75ZM37.2109 0C36.7137 0 36.1945 0.105469 35.7 0.330703C32.1305 1.96039 29.4844 2.51352 27.2781 2.51352C22.5938 2.51352 19.8711 0.0244531 14.4734 0.0236719C12.5703 0.0238672 10.2812 0.380234 7.5 1.23047V28.6133C10 27.8333 12.1773 27.5117 14.1289 27.5117C19.8813 27.5117 23.8867 29.9945 29.6445 29.9945C32.1375 29.9945 34.9586 29.528 38.3242 28.1906C39.3828 27.8047 40 26.9062 40 25.9453V2.40078C40 0.867188 38.6953 0 37.2109 0Z" fill="black"/>
</g>
<defs>
<clipPath id="clip0_709_5846">
<rect width="40" height="40" fill="white"/>
</clipPath>
</defs>
</svg>
