<svg width="40" height="40" viewBox="0 0 40 40" fill="none" xmlns="http://www.w3.org/2000/svg">
<path fill-rule="evenodd" clip-rule="evenodd" d="M30.2418 16.3806C28.8947 16.3811 27.5683 16.0494 26.38 15.4147C25.4749 14.9313 24.6713 14.2835 24.0089 13.5074L17.4738 17.2739C17.8708 18.3982 18.0203 19.6036 17.9012 20.8064C17.8359 21.4662 17.6912 22.1109 17.4733 22.7277L24.0098 26.495C24.15 26.3306 24.297 26.1715 24.4505 26.0179C25.596 24.8725 27.0555 24.0926 28.6443 23.7766C30.2332 23.4607 31.88 23.6231 33.3766 24.2431C34.8731 24.8632 36.1522 25.9131 37.0521 27.2601C37.9519 28.6072 38.4321 30.1908 38.4319 31.8107C38.4293 33.982 37.5655 36.0636 36.03 37.5989C34.4946 39.1341 32.4129 39.9976 30.2416 40C28.6217 40 27.0381 39.5196 25.6912 38.6196C24.3443 37.7196 23.2945 36.4404 22.6746 34.9438C22.0548 33.4471 21.8926 31.8003 22.2087 30.2115C22.2852 29.8271 22.3889 29.4502 22.5183 29.0836L15.9804 25.3158C15.8405 25.4796 15.6939 25.6383 15.5406 25.7914C14.7808 26.5524 13.8781 27.1557 12.8844 27.5667C11.8907 27.9777 10.8256 28.1883 9.75022 28.1864C7.85629 28.1854 6.02132 27.5277 4.55794 26.3254C3.09457 25.1231 2.09333 23.4506 1.72483 21.5929C1.35632 19.7352 1.64335 17.8071 2.53701 16.1373C3.43067 14.4675 4.87567 13.1592 6.62579 12.4353C8.37592 11.7114 10.3229 11.6167 12.135 12.1674C13.6376 12.6241 14.9704 13.501 15.9813 14.6854L22.5162 10.919C22.2973 10.2994 22.1529 9.65338 22.0879 8.99449C21.9556 7.6539 22.1561 6.30138 22.6715 5.05677C23.1869 3.81216 24.0013 2.71388 25.0426 1.85926C26.0839 1.00464 27.3199 0.420057 28.6411 0.157307C29.9624 -0.105443 31.328 -0.0382466 32.6171 0.352943C33.9061 0.744132 35.0788 1.44724 36.0312 2.39996C37.1761 3.54532 37.9558 5.00442 38.2717 6.59281C38.5875 8.1812 38.4254 9.82758 37.8058 11.3239C37.1862 12.8201 36.1369 14.0991 34.7906 14.9992C33.4442 15.8993 31.8613 16.38 30.2418 16.3806Z" fill="black"/>
</svg>
