<svg width="40" height="40" viewBox="0 0 40 40" fill="none" xmlns="http://www.w3.org/2000/svg">
<path fill-rule="evenodd" clip-rule="evenodd" d="M37.384 36.2815V13.4031C37.384 12.0689 36.7332 10.8185 35.6405 10.053L22.3467 0.740251C20.9378 -0.246752 19.0619 -0.24675 17.653 0.740253L4.35922 10.053C3.26645 10.8185 2.61572 12.0689 2.61572 13.4031V36.2815C2.61878 37.2668 3.02677 38.2109 3.75059 38.9076C4.4744 39.6043 5.45523 39.9971 6.47886 40H33.5208C34.5445 39.9971 35.5253 39.6043 36.2491 38.9076C36.9729 38.2109 37.3809 37.2668 37.384 36.2815ZM17.9547 13.8645C16.8251 13.8645 15.9095 14.7801 15.9095 15.9096V28.1808C15.9095 29.3103 16.8251 30.226 17.9547 30.226H22.045C23.1746 30.226 24.0902 29.3103 24.0902 28.1808V15.9096C24.0902 14.7801 23.1746 13.8645 22.045 13.8645H17.9547Z" fill="black"/>
</svg>
