<svg width="40" height="40" viewBox="0 0 40 40" fill="none" xmlns="http://www.w3.org/2000/svg">
<path d="M3.9375 2.39567H8.125C8.125 2.39567 8.75 1.8284 8.75 1.35399C8.75 0.879587 8.125 0.312317 8.125 0.312317H3.9375C1.76288 0.312317 0 2.07521 0 4.24985V35.7501C0 37.9248 1.76288 39.6877 3.9375 39.6877H35.4375C37.6121 39.6877 39.375 37.9248 39.375 35.7501V23.2292C39.375 23.2292 38.8077 22.6042 38.3333 22.6042C37.8589 22.6042 37.2917 23.2292 37.2917 23.2292V35.7501C37.2917 36.7742 36.4615 37.6043 35.4375 37.6043H3.9375C2.91347 37.6043 2.08333 36.7742 2.08333 35.7501V4.24985C2.08333 3.22581 2.91347 2.39567 3.9375 2.39567Z" fill="black"/>
<path fill-rule="evenodd" clip-rule="evenodd" d="M12.9879 11.5344C10.3015 10.0482 8.95833 9.30506 8.95833 8.38166C8.95833 7.45826 10.3015 6.71516 12.9878 5.22897L15.8305 3.65627C19.86 1.42697 21.8748 0.312317 24.3784 0.312317C26.8821 0.312317 28.8968 1.42696 32.9263 3.65626L35.9705 5.34041C38.6568 6.82661 40 7.56972 40 8.49312C40 8.8568 39.7917 9.1925 39.375 9.55664V17.8125C39.375 18.3878 38.9086 18.8542 38.3333 18.8542C37.758 18.8542 37.2917 18.3878 37.2917 17.8125V10.9095C36.8953 11.1342 36.4555 11.3775 35.9721 11.6449L34.7584 12.3164L33.5332 22.4241C33.3935 23.577 32.6591 24.6302 31.5136 25.0352C29.9261 25.5965 26.8728 26.5626 24.4826 26.5626C22.104 26.5626 19.0696 25.606 17.4766 25.044C16.3103 24.6326 15.5717 23.5511 15.4496 22.3762L14.4046 12.3182L12.9879 11.5344ZM16.6269 13.5475L17.5218 22.1609C17.5714 22.638 17.8552 22.9684 18.1697 23.0793C19.7729 23.6449 22.5008 24.4792 24.4826 24.4792C26.4749 24.4792 29.2206 23.6362 30.8191 23.071C31.1282 22.9617 31.4084 22.6402 31.465 22.1734L32.509 13.5607C28.8852 15.5619 26.952 16.5625 24.5799 16.5625C22.2026 16.5625 20.2661 15.5575 16.6269 13.5475ZM15.155 5.94364L17.4808 4.65691C20.7901 2.82609 22.3985 1.94112 24.3967 1.94112C26.395 1.94112 28.0034 2.82609 31.3127 4.65691L33.8033 6.03484C34.9064 6.64513 35.7198 7.09546 36.2591 7.48652C36.8078 7.88442 37.0131 8.18014 37.0131 8.46405C37.0131 8.74797 36.8078 9.04368 36.2591 9.44158C35.7198 9.83265 34.9064 10.283 33.8033 10.8933L31.4775 12.18C28.1683 14.0108 26.5599 14.8958 24.5616 14.8958C22.5633 14.8958 20.9549 14.0108 17.6457 12.18L15.155 10.8021C14.0519 10.1918 13.2386 9.74145 12.6992 9.35038C12.1505 8.95249 11.9452 8.65677 11.9452 8.37285C11.9452 8.08894 12.1505 7.79322 12.6992 7.39532C13.2386 7.00426 14.0519 6.55393 15.155 5.94364Z" fill="black"/>
</svg>
