<svg width="40" height="40" viewBox="0 0 40 40" fill="none" xmlns="http://www.w3.org/2000/svg">
<rect width="40" height="40" rx="6" fill="black"/>
<path d="M8.75625 7.67697H11.6875C11.6875 7.67697 12.125 7.27989 12.125 6.9478C12.125 6.61572 11.6875 6.21863 11.6875 6.21863H8.75625C7.23401 6.21863 6 7.45265 6 8.9749V31.0251C6 32.5474 7.23401 33.7814 8.75625 33.7814H30.8062C32.3285 33.7814 33.5625 32.5474 33.5625 31.0251V22.2604C33.5625 22.2604 33.1654 21.8229 32.8333 21.8229C32.5013 21.8229 32.1042 22.2604 32.1042 22.2604V31.0251C32.1042 31.7419 31.5231 32.323 30.8062 32.323H8.75625C8.03943 32.323 7.45833 31.7419 7.45833 31.0251V8.9749C7.45833 8.25808 8.03943 7.67697 8.75625 7.67697Z" fill="white"/>
<path fill-rule="evenodd" clip-rule="evenodd" d="M15.0915 14.0741C13.2111 13.0337 12.2708 12.5136 12.2708 11.8672C12.2708 11.2208 13.211 10.7006 15.0915 9.66028L17.0814 8.5594C19.902 6.99889 21.3124 6.21863 23.0649 6.21863C24.8174 6.21863 26.2278 6.99888 29.0484 8.55939L31.1793 9.7383C33.0598 10.7786 34 11.2988 34 11.9452C34 12.1998 33.8542 12.4348 33.5625 12.6897V18.4687C33.5625 18.8714 33.236 19.1979 32.8333 19.1979C32.4306 19.1979 32.1042 18.8714 32.1042 18.4687V13.6367C31.8267 13.7939 31.5188 13.9643 31.1805 14.1514L30.3309 14.6215L29.4733 21.6969C29.3754 22.5039 28.8614 23.2411 28.0595 23.5247C26.9482 23.9175 24.811 24.5938 23.1378 24.5938C21.4728 24.5938 19.3487 23.9242 18.2336 23.5308C17.4172 23.2428 16.9002 22.4858 16.8147 21.6633L16.0832 14.6227L15.0915 14.0741ZM17.6388 15.4832L18.2653 21.5126C18.3 21.8466 18.4986 22.0779 18.7188 22.1556C19.841 22.5515 21.7506 23.1354 23.1378 23.1354C24.5324 23.1354 26.4544 22.5453 27.5734 22.1497C27.7898 22.0732 27.9859 21.8481 28.0255 21.5214L28.7563 15.4925C26.2197 16.8933 24.8664 17.5937 23.2059 17.5937C21.5418 17.5937 20.1863 16.8902 17.6388 15.4832ZM16.6085 10.1606L18.2366 9.25984C20.5531 7.97827 21.6789 7.35879 23.0777 7.35879C24.4765 7.35879 25.6024 7.97827 27.9189 9.25984L29.6623 10.2244C30.4345 10.6516 31.0038 10.9668 31.3814 11.2406C31.7655 11.5191 31.9092 11.7261 31.9092 11.9248C31.9092 12.1236 31.7655 12.3306 31.3814 12.6091C31.0038 12.8829 30.4345 13.1981 29.6623 13.6253L28.0343 14.526C25.7178 15.8076 24.5919 16.4271 23.1931 16.4271C21.7943 16.4271 20.6684 15.8076 18.352 14.526L16.6085 13.5615C15.8363 13.1343 15.267 12.819 14.8895 12.5453C14.5054 12.2667 14.3617 12.0597 14.3617 11.861C14.3617 11.6623 14.5054 11.4553 14.8895 11.1767C15.267 10.903 15.8363 10.5878 16.6085 10.1606Z" fill="white"/>
</svg>
