<svg width="40" height="40" viewBox="0 0 40 40" fill="none" xmlns="http://www.w3.org/2000/svg">
<path fill-rule="evenodd" clip-rule="evenodd" d="M1.8692 8.2449C1.8692 7.36124 2.58554 6.6449 3.4692 6.6449H36.5304C37.4141 6.6449 38.1304 7.36124 38.1304 8.2449C38.1304 9.12855 37.4141 9.8449 36.5304 9.8449H3.4692C2.58554 9.8449 1.8692 9.12855 1.8692 8.2449ZM1.86914 20C1.86914 19.1163 2.58549 18.4 3.46914 18.4H36.5304C37.414 18.4 38.1304 19.1163 38.1304 20C38.1304 20.8837 37.414 21.6 36.5304 21.6H3.46914C2.58549 21.6 1.86914 20.8837 1.86914 20ZM3.46914 30.1551C2.58549 30.1551 1.86914 30.8714 1.86914 31.7551C1.86914 32.6388 2.58549 33.3551 3.46914 33.3551H36.5304C37.414 33.3551 38.1304 32.6388 38.1304 31.7551C38.1304 30.8714 37.414 30.1551 36.5304 30.1551H3.46914Z" fill="black"/>
</svg>
