<svg width="40" height="40" viewBox="0 0 40 40" fill="none" xmlns="http://www.w3.org/2000/svg">
<path fill-rule="evenodd" clip-rule="evenodd" d="M34.9693 22.1106C34.9693 21.5075 35.1733 20.9045 35.1733 20.1005C35.1733 19.2965 35.1733 18.6935 34.9693 18.0905L39.2539 14.6734C39.662 14.2714 39.662 13.8693 39.4579 13.4673L35.3773 6.43216C35.1733 6.23116 34.7652 6.03015 34.1531 6.23116L29.0524 8.24121C28.0322 7.43719 26.808 6.83417 25.5839 6.23116L24.7677 1.00503C24.9718 0.40201 24.3597 0 23.9516 0H15.7904C15.3823 0 14.7702 0.40201 14.7702 0.80402L13.9541 6.23116C12.7299 6.63317 11.7098 7.43719 10.4856 8.24121L5.58886 6.23116C4.97677 6.03015 4.56871 6.23116 4.16065 6.63317L0.0800421 13.6683C-0.123988 13.8693 0.0800421 14.4724 0.488103 14.8744L4.77274 18.0905C4.77274 18.6935 4.56871 19.2965 4.56871 20.1005C4.56871 20.9045 4.56871 21.5075 4.77274 22.1106L0.488103 25.5276C0.0800421 25.9296 0.0800421 26.3317 0.284073 26.7337L4.36468 33.7688C4.56871 33.9698 4.97677 34.1709 5.58886 33.9698L10.6896 31.9598C11.7098 32.7638 12.934 33.3668 14.1581 33.9698L14.9743 39.196C14.9743 39.598 15.3823 40 15.9944 40H24.1556C24.5637 40 25.1758 39.598 25.1758 39.196L25.9919 33.9698C27.2161 33.3668 28.4403 32.7638 29.4604 31.9598L34.5612 33.9698C34.9693 34.1709 35.5813 33.9699 35.7854 33.5678L39.866 26.5327C40.07 26.1307 40.07 25.5276 39.662 25.3266L34.9693 22.1106ZM19.871 27.1357C15.9944 27.1357 12.7299 23.9196 12.7299 20.1005C12.7299 16.2814 15.9944 13.0653 19.871 13.0653C23.7476 13.0653 27.0121 16.2814 27.0121 20.1005C27.0121 23.9196 23.7476 27.1357 19.871 27.1357Z" fill="black"/>
</svg>
