<svg width="40" height="40" viewBox="0 0 40 40" fill="none" xmlns="http://www.w3.org/2000/svg">
<g clip-path="url(#clip0_709_5844)">
<path fill-rule="evenodd" clip-rule="evenodd" d="M31.8168 8.45828L25.4466 2.70149V8.45828H31.8168ZM22.1132 0H7.17692C5.70416 0 4.51025 1.19391 4.51025 2.66667V37.3333C4.51025 38.8061 5.70416 40 7.17692 40H32.8229C34.2956 40 35.4895 38.8061 35.4895 37.3333V12.9577C35.4895 12.5498 35.3961 12.1516 35.2211 11.7916H24.2327C23.0727 11.7916 22.1132 10.8562 22.1132 9.67535V0ZM12.891 27.1973C11.541 27.1973 10.4466 28.2917 10.4466 29.6417C10.4466 30.9918 11.541 32.0862 12.891 32.0862H28.0021C29.3522 32.0862 30.4466 30.9918 30.4466 29.6417C30.4466 28.2917 29.3522 27.1973 28.0021 27.1973H12.891ZM10.4466 20.7531C10.4466 19.403 11.541 18.3086 12.891 18.3086H28.0021C29.3522 18.3086 30.4466 19.403 30.4466 20.7531C30.4466 22.1031 29.3522 23.1975 28.0021 23.1975H12.891C11.541 23.1975 10.4466 22.1031 10.4466 20.7531Z" fill="black"/>
<path d="M25.4466 2.70149L26.1523 1.92055C25.8436 1.64159 25.3995 1.57064 25.0193 1.73953C24.6391 1.90841 24.394 2.28543 24.394 2.70149H25.4466ZM31.8168 8.45828V9.51085C32.2522 9.51085 32.6427 9.24275 32.7991 8.83638C32.9556 8.43001 32.8456 7.96929 32.5225 7.67734L31.8168 8.45828ZM25.4466 8.45828H24.394C24.394 9.0396 24.8652 9.51085 25.4466 9.51085V8.45828ZM22.1132 0H23.1658C23.1658 -0.581323 22.6945 -1.05258 22.1132 -1.05258V0ZM35.2211 11.7916L36.1677 11.3314C35.9915 10.969 35.624 10.739 35.2211 10.739V11.7916ZM26.1881 1.12987C25.7756 0.7203 25.1091 0.722708 24.6996 1.13525C24.29 1.54779 24.2924 2.21424 24.705 2.62381L26.1881 1.12987ZM31.3341 9.20525C31.7467 9.61482 32.4131 9.61241 32.8227 9.19987C33.2323 8.78733 33.2299 8.12088 32.8173 7.71131L31.3341 9.20525ZM24.7408 3.48243L31.1111 9.23921L32.5225 7.67734L26.1523 1.92055L24.7408 3.48243ZM24.394 2.70149V8.45828H26.4991V2.70149H24.394ZM25.4466 9.51085H31.8168V7.4057H25.4466V9.51085ZM7.17692 1.05258H22.1132V-1.05258H7.17692V1.05258ZM5.56283 2.66667C5.56283 1.77523 6.28549 1.05258 7.17692 1.05258V-1.05258C5.12284 -1.05258 3.45768 0.612588 3.45768 2.66667H5.56283ZM5.56283 37.3333V2.66667H3.45768V37.3333H5.56283ZM7.17692 38.9474C6.28548 38.9474 5.56283 38.2248 5.56283 37.3333H3.45768C3.45768 39.3874 5.12284 41.0526 7.17692 41.0526V38.9474ZM32.8229 38.9474H7.17692V41.0526H32.8229V38.9474ZM34.437 37.3333C34.437 38.2248 33.7143 38.9474 32.8229 38.9474V41.0526C34.8769 41.0526 36.5421 39.3874 36.5421 37.3333H34.437ZM34.437 12.9577V37.3333H36.5421V12.9577H34.437ZM34.2744 12.2519C34.3804 12.4698 34.437 12.7108 34.437 12.9577H36.5421C36.5421 12.3888 36.4117 11.8333 36.1677 11.3314L34.2744 12.2519ZM35.2211 10.739H24.2327V12.8442H35.2211V10.739ZM24.2327 10.739C23.6452 10.739 23.1658 10.266 23.1658 9.67535H21.0606C21.0606 11.4463 22.5002 12.8442 24.2327 12.8442V10.739ZM23.1658 9.67535V0H21.0606V9.67535H23.1658ZM11.4992 29.6417C11.4992 28.873 12.1223 28.2499 12.891 28.2499V26.1447C10.9597 26.1447 9.394 27.7104 9.394 29.6417H11.4992ZM12.891 31.0336C12.1223 31.0336 11.4992 30.4104 11.4992 29.6417H9.394C9.394 31.5731 10.9597 33.1387 12.891 33.1387V31.0336ZM28.0021 31.0336H12.891V33.1387H28.0021V31.0336ZM29.394 29.6417C29.394 30.4104 28.7708 31.0336 28.0021 31.0336V33.1387C29.9335 33.1387 31.4992 31.5731 31.4992 29.6417H29.394ZM28.0021 28.2499C28.7708 28.2499 29.394 28.873 29.394 29.6417H31.4992C31.4992 27.7104 29.9335 26.1447 28.0021 26.1447V28.2499ZM12.891 28.2499H28.0021V26.1447H12.891V28.2499ZM12.891 17.256C10.9597 17.256 9.394 18.8217 9.394 20.7531H11.4992C11.4992 19.9843 12.1223 19.3612 12.891 19.3612V17.256ZM28.0021 17.256H12.891V19.3612H28.0021V17.256ZM31.4992 20.7531C31.4992 18.8217 29.9335 17.256 28.0021 17.256V19.3612C28.7708 19.3612 29.394 19.9843 29.394 20.7531H31.4992ZM28.0021 24.2501C29.9335 24.2501 31.4992 22.6844 31.4992 20.7531H29.394C29.394 21.5218 28.7708 22.1449 28.0021 22.1449V24.2501ZM12.891 24.2501H28.0021V22.1449H12.891V24.2501ZM9.394 20.7531C9.394 22.6844 10.9597 24.2501 12.891 24.2501V22.1449C12.1223 22.1449 11.4992 21.5218 11.4992 20.7531H9.394ZM24.705 2.62381L31.3341 9.20525L32.8173 7.71131L26.1881 1.12987L24.705 2.62381Z" fill="black"/>
</g>
<defs>
<clipPath id="clip0_709_5844">
<rect width="40.0001" height="40" fill="white"/>
</clipPath>
</defs>
</svg>
