<svg width="40" height="40" viewBox="0 0 40 40" fill="none" xmlns="http://www.w3.org/2000/svg">
<path d="M0.164051 18.2334L0.182968 18.2667C0.202789 18.2946 0.219006 18.3181 0.234322 18.3451L0.250538 18.3694C0.297672 18.4357 0.350414 18.4978 0.408192 18.555L0.419903 18.5658L0.419937 18.5659C0.445152 18.5893 0.470364 18.6127 0.497379 18.6343L0.520805 18.6532C0.546032 18.673 0.572151 18.6919 0.598278 18.71L0.619904 18.7244C0.650993 18.745 0.68317 18.764 0.716297 18.7811L0.755936 18.8019C0.778458 18.8127 0.800083 18.8226 0.822605 18.8316C0.837215 18.8388 0.852261 18.8451 0.867649 18.8505C0.896477 18.8622 0.927105 18.873 0.957737 18.8829L0.989269 18.8919C1.0235 18.9022 1.05774 18.9103 1.09197 18.9163L1.1244 18.9226C1.16134 18.9289 1.19828 18.937 1.23611 18.937H1.24422H1.26404L19.4774 20.4568L21.0026 38.6719C21.0062 38.7188 21.0125 38.7638 21.0206 38.8089C21.0511 38.9785 21.1142 39.1406 21.2062 39.2864C21.2134 39.2981 21.2134 39.2963 21.2287 39.3197C21.244 39.3431 21.2639 39.371 21.2774 39.389C21.2909 39.4071 21.3053 39.4233 21.3188 39.4395L21.3584 39.4854L21.4098 39.5368C21.4224 39.5494 21.4305 39.5575 21.4485 39.5737C21.4666 39.59 21.4846 39.6053 21.5035 39.6197C21.5182 39.6325 21.5335 39.6445 21.5494 39.6557C21.5666 39.6692 21.5846 39.6809 21.6026 39.6936L21.6611 39.7305L21.7098 39.7575C21.7338 39.7711 21.7584 39.7834 21.7837 39.7945L21.8089 39.8071L21.826 39.8143C21.8518 39.8252 21.8783 39.8348 21.9043 39.8442L21.9161 39.8485L21.9548 39.8611C21.9819 39.871 22.0134 39.8791 22.0449 39.8863L22.0837 39.8954C22.1134 39.9017 22.144 39.9053 22.1738 39.9098L22.2179 39.9161H22.2837H22.3503H22.4611H22.4701C22.5071 39.9134 22.5449 39.908 22.5819 39.9017L22.6134 39.8954C22.6485 39.8881 22.6837 39.88 22.7188 39.8701L22.7503 39.8611C22.7819 39.8521 22.8116 39.8413 22.8404 39.8305L22.8855 39.8116L22.9521 39.7809L22.9909 39.7611C23.0242 39.7431 23.0566 39.7242 23.0873 39.7044L23.1107 39.689C23.1368 39.671 23.162 39.6521 23.1873 39.6323L23.2107 39.6143C23.2386 39.5909 23.2656 39.5674 23.2918 39.5422C23.2937 39.5396 23.2962 39.5375 23.299 39.5359C23.3287 39.5089 23.3575 39.4782 23.3846 39.4458C23.4098 39.4179 23.4323 39.3872 23.4548 39.3557L23.4701 39.3332C23.4873 39.3071 23.5035 39.2818 23.5197 39.2548L23.5359 39.226C23.553 39.1945 23.5692 39.1629 23.5837 39.1296C23.5864 39.125 23.5888 39.1202 23.5909 39.1152L39.8844 2.10381C40.0136 1.81187 40.0353 1.48362 39.9456 1.17723C39.8558 0.870843 39.6606 0.60611 39.3943 0.429951C39.2017 0.256937 38.9635 0.142884 38.708 0.101359C38.4524 0.0598347 38.1903 0.0925865 37.9529 0.195719L0.8172 16.3415C0.733768 16.3781 0.654106 16.4228 0.579361 16.4748C0.563152 16.4861 0.54752 16.4981 0.532516 16.5109C0.513599 16.5253 0.492874 16.5406 0.475758 16.555C0.458641 16.5694 0.442429 16.5857 0.426212 16.601L0.379364 16.6451C0.365852 16.6595 0.355938 16.6721 0.339722 16.6902C0.323505 16.7082 0.307293 16.7262 0.291977 16.7451L0.26495 16.783C0.247833 16.8064 0.230717 16.8298 0.2145 16.8541C0.209095 16.8631 0.20459 16.8721 0.198284 16.8811C0.181168 16.9127 0.164051 16.9415 0.148735 16.9712C0.146103 16.9777 0.143093 16.984 0.139725 16.9902C0.123508 17.0235 0.108192 17.0559 0.0946808 17.0902C0.0883751 17.0974 0.0883751 17.1037 0.0883751 17.11C0.0757637 17.1442 0.0595474 17.1911 0.0532417 17.2136C0.046936 17.2361 0.0415306 17.2613 0.0370255 17.2811C0.0325203 17.301 0.0271149 17.3199 0.0226097 17.3397C0.00662613 17.4289 -0.000915527 17.5194 8.7738e-05 17.61V17.6442C0.00188828 17.6766 0.0045929 17.7208 0.0072937 17.7424C0.00999451 17.764 0.0135994 17.7838 0.0172043 17.8064C0.0208092 17.8289 0.0226097 17.8442 0.0289154 17.873C0.0352211 17.9019 0.0442314 17.9325 0.0532417 17.9631C0.0568466 17.9748 0.0631523 17.9865 0.0631523 17.9983C0.0802727 18.0519 0.101036 18.1042 0.125309 18.155C0.13702 18.182 0.150539 18.2082 0.164051 18.2334Z" fill="black"/>
</svg>
