<svg width="40" height="40" viewBox="0 0 40 40" fill="none" xmlns="http://www.w3.org/2000/svg">
<path fill-rule="evenodd" clip-rule="evenodd" d="M4.70588 15.5877C4.70588 9.57767 9.57806 4.70552 15.5882 4.70552C21.5984 4.70552 26.4706 9.57767 26.4706 15.5877C26.4706 21.5978 21.5984 26.4699 15.5882 26.4699C9.57806 26.4699 4.70588 21.5978 4.70588 15.5877ZM15.5882 -0.000366211C6.97912 -0.000366211 0 6.97864 0 15.5877C0 24.1968 6.97912 31.1758 15.5882 31.1758C19.0436 31.1758 22.2363 30.0516 24.8206 28.149L35.983 39.3112C36.9019 40.2301 38.3917 40.2301 39.3106 39.3112C40.2294 38.3923 40.2294 36.9025 39.3105 35.9836L28.1484 24.8216C30.0518 22.2371 31.1765 19.0437 31.1765 15.5877C31.1765 6.97864 24.1974 -0.000366211 15.5882 -0.000366211Z" fill="black"/>
</svg>
