<svg width="40" height="40" viewBox="0 0 40 40" fill="none" xmlns="http://www.w3.org/2000/svg">
<path fill-rule="evenodd" clip-rule="evenodd" d="M8.29919 39.1554L22.9416 24.513C24.1958 24.9237 25.5181 25.1385 26.8625 25.1385C30.2045 25.1385 33.4097 23.811 35.7729 21.4478C37.5493 19.7477 38.751 17.5357 39.2105 15.1202C39.6701 12.7047 39.3646 10.2059 38.3367 7.97226L29.172 15.9914H23.444V10.2634L32.6088 1.09872C30.1819 0.0630782 27.5074 -0.249257 24.9072 0.199289C22.307 0.647835 19.8917 1.83815 17.9521 3.62703C15.589 5.99026 14.2614 9.19541 14.2614 12.5374C14.2614 14.4977 14.7181 16.411 15.5727 18.1348L1.42564 32.2819C0.299526 33.408 0.299524 35.2338 1.42564 36.3599L4.22115 39.1554C5.34727 40.2815 7.17307 40.2815 8.29919 39.1554ZM9.69691 33.1753C9.69691 34.4407 8.67111 35.4665 7.40573 35.4665C6.14034 35.4665 5.11455 34.4407 5.11455 33.1753C5.11455 31.9099 6.14034 30.8841 7.40573 30.8841C8.67111 30.8841 9.69691 31.9099 9.69691 33.1753Z" fill="black"/>
</svg>
