<svg width="40" height="40" viewBox="0 0 40 40" fill="none" xmlns="http://www.w3.org/2000/svg">
<path d="M39.3044 19.1583C25.4069 16.4912 23.5093 14.5935 20.8421 0.695964C20.8044 0.500219 20.6998 0.3237 20.5461 0.196754C20.3924 0.0698083 20.1993 0.000366211 20 0.000366211C19.8007 0.000366211 19.6076 0.0698083 19.4539 0.196754C19.3002 0.3237 19.1955 0.500219 19.1579 0.695964C16.4914 14.5935 14.5938 16.4912 0.695573 19.1583C0.499833 19.1959 0.323321 19.3006 0.19638 19.4543C0.0694391 19.608 0 19.8011 0 20.0004C0 20.1997 0.0694391 20.3928 0.19638 20.5465C0.323321 20.7002 0.499833 20.8048 0.695573 20.8425C14.5938 23.5096 16.4914 25.4073 19.1579 39.3048C19.1957 39.5004 19.3005 39.6767 19.4541 39.8035C19.6078 39.9303 19.8008 39.9997 20 39.9997C20.1992 39.9997 20.3922 39.9303 20.5459 39.8035C20.6995 39.6767 20.8043 39.5004 20.8421 39.3048C23.5093 25.4073 25.4069 23.5096 39.3044 20.8425C39.5002 20.8048 39.6767 20.7002 39.8036 20.5465C39.9306 20.3928 40 20.1997 40 20.0004C40 19.8011 39.9306 19.608 39.8036 19.4543C39.6767 19.3006 39.5002 19.1959 39.3044 19.1583Z" fill="black"/>
</svg>
